<?xml version="1.0" encoding="UTF-8" standalone="no"?>
<!DOCTYPE svg PUBLIC "-//W3C//DTD SVG 1.1//EN" "http://www.w3.org/Graphics/SVG/1.1/DTD/svg11.dtd">
<svg width="100%" height="100%" viewBox="0 0 120 50" version="1.1" xmlns="http://www.w3.org/2000/svg" xmlns:xlink="http://www.w3.org/1999/xlink" xml:space="preserve" xmlns:serif="http://www.serif.com/" style="fill-rule:evenodd;clip-rule:evenodd;stroke-linejoin:round;stroke-miterlimit:2;">
    <g transform="matrix(0.20764,0,0,0.20764,14.4981,12.6907)">
        <path d="M0,117.028C32.316,117.028 58.514,90.831 58.514,58.514C58.514,26.198 32.316,0 0,0C-32.316,0 -58.514,26.198 -58.514,58.514C-58.514,90.831 -32.316,117.028 0,117.028" style="fill:rgb(0,227,0);fill-rule:nonzero;"/>
    </g>
    <g transform="matrix(0.20764,0,0,0.20764,20.2132,30.2549)">
        <path d="M0,-55.048L-27.524,-27.524L-55.048,-55.048L-55.048,0L0,0L0,-55.048Z" style="fill:white;fill-rule:nonzero;"/>
    </g>
    <g transform="matrix(0.20764,0,0,0.20764,117.634,29.1275)">
        <path d="M0,-42.385C0,-45.539 -2.515,-47.568 -5.337,-47.568C-8.158,-47.568 -10.673,-45.539 -10.673,-42.385C-10.673,-39.215 -8.158,-37.173 -5.337,-37.173C-2.515,-37.173 0,-39.215 0,-42.385M-1.416,-42.385C-1.416,-40.007 -3.183,-38.283 -5.337,-38.283C-7.518,-38.283 -9.257,-40.007 -9.257,-42.385C-9.257,-44.748 -7.518,-46.458 -5.337,-46.458C-3.183,-46.458 -1.416,-44.748 -1.416,-42.385M-2.905,-39.479L-4.46,-42.024C-3.613,-42.094 -2.933,-42.51 -2.933,-43.58C-2.933,-44.845 -3.751,-45.303 -5.211,-45.303L-7.407,-45.303L-7.407,-39.479L-6.255,-39.479L-6.255,-41.967L-5.531,-41.967L-4.112,-39.479L-2.905,-39.479ZM-5.225,-42.87L-6.255,-42.87L-6.255,-44.401L-5.281,-44.401C-4.752,-44.401 -4.085,-44.29 -4.085,-43.677C-4.085,-42.968 -4.558,-42.87 -5.225,-42.87M-30.556,-36.925L-15.073,-36.925L-15.073,-46.475L-60.249,-46.475L-60.249,-11.82L-60.393,-11.82L-81.954,-46.475L-93.241,-46.475L-93.241,5.183L-82.605,5.183L-82.605,-29.401L-82.461,-29.401L-60.972,5.183L-49.613,5.183L-49.613,-36.925L-41.915,-36.925L-41.915,5.183L-30.556,5.183L-30.556,-36.925ZM-108.073,5.183L-96.714,5.183L-96.714,-46.475L-108.073,-46.475L-108.073,5.183ZM-122.181,5.183L-111.545,5.183L-111.545,-46.475L-127.535,-46.475L-138.967,-10.952L-139.111,-10.952L-151.194,-46.475L-167.183,-46.475L-167.183,5.183L-156.548,5.183L-156.548,-31.065L-156.403,-31.065L-143.742,5.183L-134.987,5.183L-122.326,-31.427L-122.181,-31.427L-122.181,5.183ZM-186.684,-36.925L-171.201,-36.925L-171.201,-46.475L-244.984,-46.475L-244.984,5.183L-205.77,5.183L-205.77,-4.368L-233.625,-4.368L-233.625,-17.029L-208.592,-17.029L-208.592,-25.856L-233.625,-25.856L-233.625,-36.925L-198.043,-36.925L-198.043,5.183L-186.684,5.183L-186.684,-36.925ZM-259.816,5.183L-248.457,5.183L-248.457,-46.475L-259.093,-46.475L-259.093,-11.82L-259.237,-11.82L-280.798,-46.475L-292.084,-46.475L-292.084,5.183L-281.449,5.183L-281.449,-29.401L-281.304,-29.401L-259.816,5.183ZM-305.52,5.183L-293.727,5.183L-313.044,-46.475L-324.693,-46.475L-340.675,-4.368L-356.154,-4.368L-356.154,-46.475L-367.513,-46.475L-367.513,5.183L-332.796,5.183L-328.744,-6.321L-309.427,-6.321L-305.52,5.183ZM-312.393,-14.786L-325.778,-14.786L-319.049,-33.742L-318.905,-33.742L-312.393,-14.786ZM-370.414,-29.907C-370.414,-38.3 -375.334,-46.475 -388.285,-46.475L-411.582,-46.475L-411.582,5.183L-400.223,5.183L-400.223,-13.339L-388.285,-13.339C-375.334,-13.339 -370.414,-21.514 -370.414,-29.907M-381.411,-29.907C-381.411,-23.323 -386.187,-22.165 -391.396,-22.165L-400.223,-22.165L-400.223,-37.649L-391.396,-37.649C-386.187,-37.649 -381.411,-36.491 -381.411,-29.907" style="fill-rule:nonzero;"/>
    </g>
</svg>
